Motion_pu04
version=1
nRows=9
nColumns=43
inDegrees=yes
endheader
time	pelvis_tilt	pelvis_list	pelvis_rotation	pelvis_tx	pelvis_ty	pelvis_tz	hip_flexion_r	hip_adduction_r	hip_rotation_r	knee_angle_r	ankle_angle_r	subtalar_angle_r	mtp_angle_r	hip_flexion_l	hip_adduction_l	hip_rotation_l	knee_angle_l	ankle_angle_l	subtalar_angle_l	mtp_angle_l	lumbar_extension	lumbar_bending	lumbar_rotation	neck_flexion	neck_lateral_bending	neck_rotation	arm_flex_r	arm_add_r	arm_rot_r	elbow_flex_r	pro_sup_r	wrist_flex_r	wrist_dev_r	hand_finger_flex_r	arm_flex_l	arm_add_l	arm_rot_l	elbow_flex_l	pro_sup_l	wrist_flex_l	wrist_dev_l	hand_finger_flex_l
      2.30250000	     -6.19198867	    -25.89761611	    -95.67788683	     -0.02369995	      0.98689358	      1.17800008	      1.16514247	     -8.62919383	     -8.50694818	    -89.52086677	     -8.20674231	    -20.81420456	     -5.91498729	     -0.43459336	    -16.15008824	     -9.13018618	    -88.49932695	    -13.34883288	    -12.97919217	     -6.35017764	     -3.11163682	      5.85744836	      7.66090467	    -18.70167456	      1.38329989	     -4.90605319	    -70.44712494	   -147.46662645	   -164.26625573	     73.31301669	    145.64312475	     17.86828087	     -2.61955556	     71.37422242	    107.61062000	    -13.36173370	      4.20562688	     67.00661308	    160.56553264	     15.17423227	      2.23995460	     67.60361468
      2.30500000	     -6.16892611	    -25.71774447	    -95.68570547	     -0.02352318	      0.98440279	      1.17865442	      1.08756150	     -8.59007743	     -8.42783619	    -89.41910333	     -8.12110953	    -20.87285458	     -5.87582617	     -0.44661697	    -16.10249332	     -9.15991759	    -88.42336141	    -13.38191850	    -12.86536645	     -6.33337567	     -2.99556524	      5.98868247	      7.70620811	    -18.44384560	      1.33674455	     -4.92701036	    -69.62671862	   -147.71976050	   -163.61566475	     72.66547610	    145.53696630	     17.78421539	     -2.60253672	     71.40147243	    108.18513745	    -13.41063414	      4.22779583	     66.07553104	    160.55691557	     15.14332364	      2.26918327	     67.59948703
      2.30750000	     -6.19378812	    -25.57487864	    -95.74606543	     -0.02411602	      0.98260016	      1.17844853	      1.07905129	     -8.54598820	     -8.48778213	    -89.28914445	     -8.10904587	    -20.87010955	     -5.86614717	     -0.43739851	    -16.06684974	     -9.15357217	    -88.30690411	    -13.38113796	    -12.83723597	     -6.32838540	     -2.98134863	      5.93534486	      7.76225798	    -18.41143268	      1.26907348	     -4.92863247	    -69.28439976	   -147.74798305	   -163.62320043	     72.37097154	    145.52133190	     17.76323608	     -2.58521308	     71.40865100	    108.50920958	    -13.27374637	      4.24904652	     66.06963275	    160.52973789	     15.09953010	      2.24665620	     67.59832738
      2.31000000	     -6.31324312	    -25.61920493	    -95.91771538	     -0.02357657	      0.97877327	      1.17664893	      1.20923062	     -8.49107177	     -8.32195632	    -89.68767989	     -7.74521565	    -21.01813573	     -5.66827788	     -0.28976849	    -16.10759793	     -9.12745465	    -88.79273648	    -13.20304136	    -12.49336399	     -6.20844024	     -3.63464852	      6.28777053	      8.05139187	    -17.16283115	      0.43297728	     -5.05975798	    -67.42601202	   -148.10979903	   -162.50326711	     71.40754760	    145.07350797	     17.46886906	     -2.61874627	     71.56793649	    109.65203034	    -13.48926175	      4.35709386	     64.97926071	    160.16592942	     14.61568369	      1.99062090	     67.65891994
      2.31250000	     -6.32149559	    -25.44890724	    -95.96040545	     -0.02418114	      0.97718915	      1.17712163	      1.12947703	     -8.42508831	     -8.35545050	    -89.51978423	     -7.76470844	    -20.99701011	     -5.66250293	     -0.35337224	    -16.05619706	     -9.12485555	    -88.62103277	    -13.20692356	    -12.46707141	     -6.20530191	     -3.48823696	      6.24309772	      8.07971477	    -17.16360471	      0.45269623	     -5.07533711	    -67.18417617	   -148.21671422	   -162.57813470	     71.05764752	    145.07697144	     17.47192770	     -2.59635446	     71.57801940	    109.87622206	    -13.38089016	      4.33971115	     64.94741495	    160.15131215	     14.58133483	      1.98445271	     67.66267410
      2.31500000	     -6.27478839	    -25.23348069	    -95.97063440	     -0.02447812	      0.97528947	      1.17809546	      1.02487115	     -8.37616861	     -8.33080129	    -89.28771750	     -7.75494201	    -20.99967717	     -5.63576923	     -0.43640691	    -16.01493891	     -9.15617345	    -88.39745248	    -13.21345921	    -12.38955328	     -6.19345061	     -3.26220455	      6.27908117	      8.09573947	    -17.09027296	      0.51127123	     -5.10802912	    -66.70494079	   -148.52263327	   -162.32073864	     70.54439728	    145.05770116	     17.49878319	     -2.59020638	     71.60858384	    110.28514350	    -13.41246302	      4.27814528	     64.33883592	    160.16550885	     14.55371709	      2.01806111	     67.66917233
      2.31750000	     -6.29358677	    -25.08307891	    -95.97143242	     -0.02456295	      0.97369766	      1.17797006	      0.99703772	     -8.33188144	     -8.36687391	    -89.13621418	     -7.74923520	    -20.99736255	     -5.62542078	     -0.42962985	    -15.94607949	     -9.19552038	    -88.25536451	    -13.21341118	    -12.35777019	     -6.18931896	     -3.21170425	      6.27695289	      8.13759180	    -17.08259645	      0.48710747	     -5.11156086	    -66.34971541	   -148.58701127	   -162.41526714	     70.23287940	    145.06357133	     17.51131795	     -2.57780391	     71.61908319	    110.53945489	    -13.24837607	      4.31604682	     64.25618939	    160.15353265	     14.52951080	      2.00479089	     67.67047671
      2.32000000	     -6.32080164	    -24.98209037	    -96.06081963	     -0.02460158	      0.97053635	      1.17765949	      1.05966795	     -8.37904664	     -8.40015834	    -89.34684495	     -7.51421923	    -21.14294787	     -5.48281090	     -0.34415081	    -15.96872741	     -9.18965745	    -88.47104898	    -13.11528495	    -12.17747084	     -6.12797335	     -3.40372232	      6.41895801	      8.42748226	    -16.50165089	      0.11025334	     -5.14121663	    -65.09126453	   -148.77267256	   -161.70774845	     69.40666737	    144.96927642	     17.69682819	     -2.70245128	     71.73652088	    111.49799038	    -13.17524593	      4.52141563	     62.99990753	    160.07746861	     14.38543838	      1.92456973	     67.71261488
      2.32250000	     -6.29875238	    -24.79743776	    -96.07741109	     -0.02474137	      0.96882511	      1.17812839	      0.98351105	     -8.25615253	     -8.27722757	    -89.14824544	     -7.47438036	    -21.16195319	     -5.43326168	     -0.37552442	    -15.88162919	     -9.23662440	    -88.34201967	    -13.08773783	    -12.10483972	     -6.10749918	     -3.30436690	      6.44427895	      8.38104487	    -16.26545942	      0.17297860	     -5.20446629	    -64.63855592	   -149.09748271	   -161.67215346	     68.98330039	    144.93193615	     17.77670407	     -2.74998345	     71.77679555	    111.87553807	    -13.23151740	      4.41521798	     62.75672053	    160.04427671	     14.27821282	      1.90982980	     67.73024621
